<svg data-v-0dd9719b="" version="1.0" xmlns="http://www.w3.org/2000/svg" xmlns:xlink="http://www.w3.org/1999/xlink" width="100%" height="100%" viewBox="0 0 340.000000 250.000000" preserveAspectRatio="xMidYMid meet" color-interpolation-filters="sRGB" style="margin: auto;"> <rect data-v-0dd9719b="" x="0" y="0" width="100%" height="100%" fill="#ffffff" fill-opacity="1" class="background"></rect> <rect data-v-0dd9719b="" x="0" y="0" width="100%" height="100%" fill="url(#watermark)" fill-opacity="1" class="watermarklayer"></rect> <g data-v-0dd9719b="" fill="#000000" class="icon-text-wrapper icon-svg-group iconsvg" transform="translate(35.600006103515625,93.80302047729492)"><g class="iconsvg-imagesvg" transform="translate(0,0)"><g><rect fill="#000000" fill-opacity="0" stroke-width="2" x="0" y="0" width="45.59999999999999" height="62.39395763778663" class="image-rect"></rect> <svg filter="url(#colors9102830911)" x="0" y="0" width="45.59999999999999" height="62.39395763778663" filtersec="colorsf9102403817" class="image-svg-svg primary" style="overflow: visible;"><svg xmlns="http://www.w3.org/2000/svg" xmlns:xlink="http://www.w3.org/1999/xlink" xml:space="preserve" version="1.1" viewBox="20776.75 10012 58447.5 79973.25" x="0px" y="0px" fill-rule="evenodd" clip-rule="evenodd"><defs></defs><g><path d="M49567 10012c-1804,1066 -6265,3535 -9675,4022 -4374,625 -6040,-695 -6735,70 -694,764 -624,5206 -4234,6663 -3328,1345 -3827,-85 -4863,3055 899,-881 2281,-1758 4407,-2347 4361,-1211 12702,-1824 21100,-1840l0 -9623zm14261 64387l-4223 7636 7347 -5380 -3124 868c0,0 58,-3241 0,-3124zm-27655 0l4223 7636 -7347 -5380 3124 868c0,0 -58,-3241 0,-3124zm10464 -2178c-359,709 -885,1717 -1971,3115l2371 5718 -102 2752c2063,29 4069,29 6131,0l-101 -2752 2370 -5718c-1084,-1397 -1610,-2402 -1970,-3112 -85,-170 -6658,-140 -6728,-3zm-10474 -37014c-4929,2013 -6525,4235 -6525,4235l-5972 -172c1030,-4837 6641,-7704 13579,-9686 8072,-2306 17398,-2318 25511,0 6938,1982 12549,4849 13580,9686l-5972 172c0,0 -1597,-2222 -6526,-4235 -4863,-1986 -22812,-1986 -27675,0zm-12489 15154l4364 328c0,0 -973,1806 833,3055 1805,1250 6665,7428 10344,5138 11509,-7166 10062,-7166 21571,0 3679,2290 8539,-3888 10344,-5138 1806,-1249 833,-3055 833,-3055l4364 -328c-252,4595 -976,8918 -3155,10048 -3749,1944 -11108,5414 -12635,4166 -5925,-4847 -4467,-4311 -10536,-4349 -6070,38 -4612,-497 -10535,4349 -1528,1248 -8887,-2222 -12636,-4166 -2180,-1130 -2904,-5453 -3156,-10048zm15740 6922c-2847,1666 -8886,-6250 -8886,-6250l903 -11037c491,-6013 36648,-6013 37140,0l902 11037c0,0 -6039,7916 -8886,6250 -13017,-7620 -8156,-7620 -21173,0zm19522 16907l-5277 11089 -35 -18 955 1746 10445 -16831 -998 -3460 -3925 4059 -6852 -8914 -6496 0 -6852 8914 -3924 -4059 -998 3460 10443 16831 956 -1746 -35 18 -5278 -11089c2885,-3388 6462,-6864 8936,-10502 2450,3634 6062,7118 8935,10502zm-6038 10532l4946 -10391 -7843 -9201 -7844 9201 4946 10391 5795 0zm-2463 -65087c8343,25 16607,638 20940,1840 2324,645 3759,1632 4646,2594 -1092,-3459 -1531,-1923 -4942,-3302 -3610,-1457 -3541,-5899 -4235,-6663 -695,-765 -2360,555 -6735,-70 -3409,-487 -7872,-2956 -9674,-4022l0 9623zm-26685 5197c-1239,4171 -2468,2767 -2606,6002 -85,1982 395,2682 705,3457 3284,-3100 7699,-5197 12410,-6610 11498,-3450 19986,-3450 31483,0 4712,1413 9126,3510 12411,6610 311,-775 789,-1475 704,-3457 -90,-2103 -1710,-3248 -2470,-5566 -684,-1124 -2120,-2533 -5129,-3368 -8410,-2334 -34264,-2334 -42674,0 -2630,730 -4058,1898 -4834,2932zm-1758 9874c109,398 153,864 53,1543 -347,2360 -1181,2568 -1181,6179 0,3609 -348,7915 346,8330 695,416 4650,11177 4650,15759 0,1559 -127,2586 -100,3457 904,1260 3390,4383 8621,8873 854,733 1683,1451 2461,2124 5294,4582 8187,7086 10539,7086 1800,0 3439,0 5239,0 2351,0 5245,-2504 10539,-7086 778,-673 1607,-1391 2462,-2124 5232,-4490 7718,-7614 8621,-8874 27,-870 -101,-1897 -101,-3456 0,-4582 3956,-15343 4650,-15759 694,-415 346,-4721 346,-8330 0,-3611 -834,-3819 -1180,-6179 -100,-679 -57,-1145 53,-1543 -3246,-3121 -7662,-5225 -12383,-6642 -10797,-3239 -20455,-3239 -31253,0 -4721,1417 -9136,3521 -12382,6642zm3846 36040c246,1317 1139,2517 3911,5212 19239,18703 21264,18703 40504,0 2773,-2695 3666,-3896 3910,-5212 -1163,1521 -3665,4441 -8283,8404 -893,768 -1702,1467 -2460,2122 -5367,4646 -8300,7184 -10800,7184 -1747,0 -3492,0 -5239,0 -2500,0 -5433,-2538 -10800,-7184 -758,-655 -1567,-1354 -2460,-2122 -4617,-3962 -7118,-6881 -8283,-8404z"></path></g></svg></svg> <defs><filter id="colors9102830911"><feColorMatrix type="matrix" values="0 0 0 0 0  0 0 0 0 0  0 0 0 0 0  0 0 0 1 0" class="icon-fecolormatrix"></feColorMatrix></filter> <filter id="colorsf9102403817"><feColorMatrix type="matrix" values="0 0 0 0 0.99609375  0 0 0 0 0.99609375  0 0 0 0 0.99609375  0 0 0 1 0" class="icon-fecolormatrix"></feColorMatrix></filter> <filter id="colorsb3467824303"><feColorMatrix type="matrix" values="0 0 0 0 0  0 0 0 0 0  0 0 0 0 0  0 0 0 1 0" class="icon-fecolormatrix"></feColorMatrix></filter></defs></g></g> <g transform="translate(52.79999923706055,12.393959045410156)"><g data-gra="path-name" fill-rule="" class="tp-name iconsvg-namesvg" transform="translate(0,0)"><g transform="scale(1)"><g><path d="M5.88-8.02L5.88 0 1.86 0 1.86-20.07 5.88-20.07 5.88-12.04 13.9-12.04 13.9-20.07 17.92-20.07 17.92 0 13.9 0 13.9-8.02 5.88-8.02ZM37.14-12.3L29.97-3.67Q30.2-3.6 30.42-3.58 30.65-3.56 30.87-3.56L30.87-3.56Q31.43-3.56 31.95-3.71 32.46-3.86 32.92-4.15 33.37-4.44 33.73-4.85 34.09-5.26 34.31-5.77L34.31-5.77 37.11-2.95Q36.58-2.2 35.89-1.6 35.19-0.99 34.39-0.57 33.58-0.15 32.7 0.06 31.81 0.28 30.87 0.28L30.87 0.28Q29.29 0.28 27.89-0.31 26.5-0.9 25.46-1.95 24.42-3 23.81-4.44 23.21-5.89 23.21-7.63L23.21-7.63Q23.21-9.41 23.81-10.88 24.42-12.35 25.46-13.38 26.5-14.42 27.89-14.99 29.29-15.57 30.87-15.57L30.87-15.57Q31.81-15.57 32.7-15.34 33.6-15.12 34.4-14.7 35.21-14.28 35.91-13.67 36.61-13.06 37.14-12.3L37.14-12.3ZM27.48-5.64L31.93-11.55Q31.67-11.65 31.41-11.67 31.15-11.7 30.87-11.7L30.87-11.7Q30.09-11.7 29.39-11.42 28.7-11.13 28.19-10.6 27.68-10.06 27.38-9.32 27.09-8.57 27.09-7.63L27.09-7.63Q27.09-7.42 27.11-7.15 27.13-6.89 27.18-6.61 27.23-6.34 27.3-6.09 27.37-5.84 27.48-5.64L27.48-5.64ZM45.91-20.95L45.91 0 42.06 0 42.06-20.95 45.91-20.95ZM70.88-9.52L70.88 0 67.08 0 67.08-9.52Q67.08-9.91 66.93-10.26 66.78-10.61 66.52-10.88 66.25-11.14 65.9-11.29 65.55-11.44 65.16-11.44L65.16-11.44Q64.77-11.44 64.42-11.29 64.08-11.14 63.82-10.88 63.56-10.61 63.42-10.26 63.27-9.91 63.27-9.52L63.27-9.52 63.27 0 59.45 0 59.45-9.52Q59.45-9.91 59.3-10.26 59.15-10.61 58.89-10.88 58.62-11.14 58.27-11.29 57.92-11.44 57.53-11.44L57.53-11.44Q57.14-11.44 56.79-11.29 56.45-11.14 56.19-10.88 55.93-10.61 55.79-10.26 55.64-9.91 55.64-9.52L55.64-9.52 55.64 0 51.82 0 51.82-14.99 52.74-14.99 53.78-13.84Q54.58-14.52 55.53-14.89 56.49-15.26 57.53-15.26L57.53-15.26Q58.58-15.26 59.58-14.87 60.58-14.47 61.34-13.51L61.34-13.51Q61.69-13.98 62.13-14.32 62.58-14.66 63.08-14.87 63.58-15.08 64.11-15.17 64.64-15.26 65.16-15.26L65.16-15.26Q66.35-15.26 67.39-14.81 68.43-14.36 69.21-13.58 69.99-12.81 70.44-11.76 70.88-10.71 70.88-9.52L70.88-9.52ZM89.8-12.3L82.63-3.67Q82.86-3.6 83.08-3.58 83.3-3.56 83.53-3.56L83.53-3.56Q84.09-3.56 84.61-3.71 85.12-3.86 85.58-4.15 86.03-4.44 86.39-4.85 86.75-5.26 86.97-5.77L86.97-5.77 89.77-2.95Q89.24-2.2 88.55-1.6 87.85-0.99 87.05-0.57 86.24-0.15 85.35 0.06 84.47 0.28 83.53 0.28L83.53 0.28Q81.95 0.28 80.55-0.31 79.16-0.9 78.12-1.95 77.07-3 76.47-4.44 75.87-5.89 75.87-7.63L75.87-7.63Q75.87-9.41 76.47-10.88 77.07-12.35 78.12-13.38 79.16-14.42 80.55-14.99 81.95-15.57 83.53-15.57L83.53-15.57Q84.47-15.57 85.36-15.34 86.26-15.12 87.06-14.7 87.87-14.28 88.57-13.67 89.27-13.06 89.8-12.3L89.8-12.3ZM80.14-5.64L84.59-11.55Q84.33-11.65 84.07-11.67 83.81-11.7 83.53-11.7L83.53-11.7Q82.74-11.7 82.05-11.42 81.36-11.13 80.85-10.6 80.34-10.06 80.04-9.32 79.75-8.57 79.75-7.63L79.75-7.63Q79.75-7.42 79.77-7.15 79.79-6.89 79.84-6.61 79.89-6.34 79.96-6.09 80.03-5.84 80.14-5.64L80.14-5.64ZM105.13 0L102.23 0Q100.85 0 99.63-0.52 98.41-1.05 97.49-1.97 96.58-2.88 96.05-4.1 95.53-5.32 95.53-6.7L95.53-6.7 95.53-11.16 93.67-11.16 93.67-14.96 95.53-14.96 95.53-20.95 99.34-20.95 99.34-14.96 105.13-14.96 105.13-11.16 99.34-11.16 99.34-6.7Q99.34-6.1 99.56-5.58 99.78-5.05 100.18-4.66 100.57-4.27 101.1-4.04 101.63-3.81 102.23-3.81L102.23-3.81 105.13-3.81 105.13 0ZM124.76-7.63L124.76-7.63Q124.76-5.95 124.16-4.5 123.56-3.05 122.52-1.99 121.48-0.94 120.09-0.33 118.7 0.28 117.1 0.28L117.1 0.28Q115.52 0.28 114.13-0.33 112.74-0.94 111.69-1.99 110.65-3.05 110.05-4.5 109.45-5.95 109.45-7.63L109.45-7.63Q109.45-9.34 110.05-10.79 110.65-12.25 111.69-13.3 112.74-14.36 114.13-14.96 115.52-15.57 117.1-15.57L117.1-15.57Q118.7-15.57 120.09-15 121.48-14.43 122.52-13.39 123.56-12.35 124.16-10.88 124.76-9.42 124.76-7.63ZM120.91-7.63L120.91-7.63Q120.91-8.55 120.61-9.3 120.31-10.05 119.79-10.59 119.27-11.13 118.58-11.42 117.89-11.7 117.1-11.7L117.1-11.7Q116.32-11.7 115.63-11.42 114.93-11.13 114.42-10.59 113.91-10.05 113.62-9.3 113.32-8.55 113.32-7.63L113.32-7.63Q113.32-6.76 113.62-6.02 113.91-5.28 114.42-4.73 114.93-4.19 115.63-3.87 116.32-3.56 117.1-3.56L117.1-3.56Q117.89-3.56 118.58-3.85 119.27-4.14 119.79-4.68 120.31-5.21 120.61-5.96 120.91-6.72 120.91-7.63ZM133.72-20.95L133.72 0 129.87 0 129.87-20.95 133.72-20.95ZM154.12-7.63L154.12-7.63Q154.12-5.95 153.52-4.5 152.92-3.05 151.88-1.99 150.85-0.94 149.45-0.33 148.06 0.28 146.46 0.28L146.46 0.28Q144.88 0.28 143.49-0.33 142.1-0.94 141.05-1.99 140.01-3.05 139.41-4.5 138.81-5.95 138.81-7.63L138.81-7.63Q138.81-9.34 139.41-10.79 140.01-12.25 141.05-13.3 142.1-14.36 143.49-14.96 144.88-15.57 146.46-15.57L146.46-15.57Q148.06-15.57 149.45-15 150.85-14.43 151.88-13.39 152.92-12.35 153.52-10.88 154.12-9.42 154.12-7.63ZM150.27-7.63L150.27-7.63Q150.27-8.55 149.97-9.3 149.67-10.05 149.15-10.59 148.63-11.13 147.94-11.42 147.25-11.7 146.46-11.7L146.46-11.7Q145.68-11.7 144.99-11.42 144.29-11.13 143.78-10.59 143.27-10.05 142.98-9.3 142.69-8.55 142.69-7.63L142.69-7.63Q142.69-6.76 142.98-6.02 143.27-5.28 143.78-4.73 144.29-4.19 144.99-3.87 145.68-3.56 146.46-3.56L146.46-3.56Q147.25-3.56 147.94-3.85 148.63-4.14 149.15-4.68 149.67-5.21 149.97-5.96 150.27-6.72 150.27-7.63ZM169.9-7.63L169.9-7.63Q169.9-8.41 169.6-9.15 169.3-9.88 168.78-10.45 168.26-11.02 167.57-11.36 166.88-11.7 166.09-11.7L166.09-11.7Q165.31-11.7 164.62-11.44 163.92-11.17 163.41-10.65 162.9-10.13 162.61-9.37 162.31-8.61 162.31-7.63L162.31-7.63Q162.31-6.69 162.61-5.94 162.9-5.19 163.41-4.66 163.92-4.13 164.62-3.84 165.31-3.56 166.09-3.56L166.09-3.56Q166.88-3.56 167.57-3.9 168.26-4.24 168.78-4.81 169.3-5.38 169.6-6.11 169.9-6.84 169.9-7.63ZM173.75-14.96L173.75-1.89Q173.75-0.31 173.15 1.08 172.55 2.46 171.5 3.5 170.46 4.54 169.07 5.14 167.68 5.74 166.09 5.74L166.09 5.74 164.18 5.71 164.18 1.89 166.07 1.92Q166.96 1.92 167.59 1.69 168.22 1.46 168.66 1.06 169.09 0.66 169.35 0.14 169.61-0.38 169.76-0.95L169.76-0.95Q169.54-0.59 169.12-0.36 168.7-0.13 168.19 0.02 167.68 0.17 167.12 0.22 166.57 0.28 166.09 0.28L166.09 0.28Q164.51 0.28 163.12-0.27 161.73-0.81 160.68-1.83 159.64-2.84 159.04-4.31 158.44-5.78 158.44-7.63L158.44-7.63Q158.44-9.32 159.04-10.78 159.64-12.23 160.68-13.3 161.73-14.36 163.12-14.96 164.51-15.57 166.09-15.57L166.09-15.57Q166.82-15.57 167.54-15.38 168.25-15.2 168.92-14.88 169.59-14.56 170.2-14.12 170.81-13.69 171.34-13.19L171.34-13.19 172.83-14.96 173.75-14.96ZM184.17-19.06L184.17-19.06Q184.17-18.53 183.97-18.07 183.76-17.61 183.41-17.27 183.06-16.92 182.59-16.72 182.13-16.52 181.59-16.52L181.59-16.52Q181.06-16.52 180.59-16.72 180.12-16.92 179.78-17.27 179.44-17.61 179.23-18.07 179.03-18.53 179.03-19.06L179.03-19.06Q179.03-19.58 179.23-20.05 179.44-20.52 179.78-20.86 180.12-21.21 180.59-21.41 181.06-21.61 181.59-21.61L181.59-21.61Q182.13-21.61 182.59-21.41 183.06-21.21 183.41-20.86 183.76-20.52 183.97-20.05 184.17-19.58 184.17-19.06ZM183.51-14.99L183.51 0 179.66 0 179.66-14.99 183.51-14.99ZM197.65 0L197.65 0 188.92 0 188.92-3.81 197.65-3.81Q198.05-3.81 198.33-4.09 198.61-4.37 198.61-4.76L198.61-4.76Q198.61-5.17 198.33-5.29 198.05-5.42 197.65-5.42L197.65-5.42 193.68-5.42Q192.68-5.42 191.82-5.79 190.95-6.17 190.3-6.82 189.66-7.47 189.29-8.34 188.92-9.21 188.92-10.2L188.92-10.2Q188.92-11.2 189.29-12.07 189.66-12.93 190.3-13.58 190.95-14.22 191.82-14.59 192.68-14.96 193.68-14.96L193.68-14.96 201.42-14.96 201.42-11.16 193.68-11.16Q193.29-11.16 193.01-10.88 192.73-10.6 192.73-10.2L192.73-10.2Q192.73-9.8 193.01-9.51 193.29-9.22 193.68-9.22L193.68-9.22 197.65-9.22Q198.63-9.22 199.5-8.9 200.37-8.57 201.01-7.98 201.66-7.39 202.03-6.56 202.41-5.74 202.41-4.76L202.41-4.76Q202.41-3.77 202.03-2.9 201.66-2.04 201.01-1.39 200.37-0.74 199.5-0.37 198.63 0 197.65 0ZM217.86 0L214.96 0Q213.57 0 212.36-0.52 211.14-1.05 210.22-1.97 209.3-2.88 208.78-4.1 208.25-5.32 208.25-6.7L208.25-6.7 208.25-11.16 206.39-11.16 206.39-14.96 208.25-14.96 208.25-20.95 212.06-20.95 212.06-14.96 217.86-14.96 217.86-11.16 212.06-11.16 212.06-6.7Q212.06-6.1 212.29-5.58 212.51-5.05 212.9-4.66 213.29-4.27 213.82-4.04 214.36-3.81 214.96-3.81L214.96-3.81 217.86-3.81 217.86 0Z" transform="translate(-1.8600000143051147, 21.610000610351562)"></path></g> <!----> <!----> <!----> <!----> <!----> <!----> <!----></g></g> <g data-gra="path-slogan" fill-rule="" class="tp-slogan iconsvg-slogansvg" fill="#000000" transform="translate(5,33.35000038146973)"><rect x="0" height="1" y="3.580000400543213" width="6.56500244140625"></rect> <rect height="1" y="3.580000400543213" width="6.56500244140625" x="199.43499755859375"></rect> <g transform="translate(9.56500244140625,0)"><g transform="scale(1)"><path d="M1.08 0L1.08-7.87L3.49-7.87Q4.14-7.87 4.68-7.75Q5.22-7.63 5.60-7.36Q5.98-7.09 6.19-6.65Q6.40-6.20 6.40-5.56L6.40-5.56Q6.40-4.93 6.19-4.48Q5.98-4.02 5.59-3.72Q5.21-3.42 4.67-3.27Q4.14-3.12 3.49-3.12L3.49-3.12L2.08-3.12L2.08 0L1.08 0ZM2.08-3.94L3.37-3.94Q4.40-3.94 4.90-4.33Q5.40-4.72 5.40-5.56L5.40-5.56Q5.40-6.41 4.90-6.74Q4.39-7.07 3.37-7.07L3.37-7.07L2.08-7.07L2.08-3.94ZM13.99-7.07L13.99-4.14L15.31-4.14Q16.23-4.14 16.72-4.52Q17.22-4.90 17.22-5.66L17.22-5.66Q17.22-6.44 16.72-6.76Q16.23-7.07 15.31-7.07L15.31-7.07L13.99-7.07ZM18.44 0L17.31 0L15.42-3.32L13.99-3.32L13.99 0L12.99 0L12.99-7.87L15.45-7.87Q16.05-7.87 16.56-7.76Q17.07-7.64 17.44-7.38Q17.80-7.12 18.01-6.70Q18.21-6.28 18.21-5.66L18.21-5.66Q18.21-4.74 17.73-4.19Q17.25-3.64 16.45-3.43L16.45-3.43L18.44 0ZM27.87 0.14L27.87 0.14Q27.12 0.14 26.51-0.14Q25.89-0.43 25.44-0.97Q25-1.50 24.75-2.26Q24.51-3.02 24.51-3.97L24.51-3.97Q24.51-4.92 24.75-5.67Q25-6.42 25.44-6.94Q25.89-7.46 26.51-7.74Q27.12-8.02 27.87-8.02L27.87-8.02Q28.61-8.02 29.23-7.73Q29.85-7.45 30.30-6.93Q30.75-6.41 30.99-5.66Q31.24-4.91 31.24-3.97L31.24-3.97Q31.24-3.02 30.99-2.26Q30.75-1.50 30.30-0.97Q29.85-0.43 29.23-0.14Q28.61 0.14 27.87 0.14ZM27.87-0.73L27.87-0.73Q28.40-0.73 28.82-0.96Q29.25-1.19 29.55-1.61Q29.86-2.04 30.03-2.63Q30.20-3.23 30.20-3.97L30.20-3.97Q30.20-4.70 30.03-5.29Q29.86-5.88 29.55-6.29Q29.25-6.70 28.82-6.92Q28.40-7.14 27.87-7.14L27.87-7.14Q27.34-7.14 26.91-6.92Q26.49-6.70 26.18-6.29Q25.88-5.88 25.71-5.29Q25.54-4.70 25.54-3.97L25.54-3.97Q25.54-3.23 25.71-2.63Q25.88-2.04 26.18-1.61Q26.49-1.19 26.91-0.96Q27.34-0.73 27.87-0.73ZM39.32 0L39.32-7.03L36.95-7.03L36.95-7.87L42.71-7.87L42.71-7.03L40.33-7.03L40.33 0L39.32 0ZM49.12 0L49.12-7.87L53.66-7.87L53.66-7.03L50.12-7.03L50.12-4.56L53.11-4.56L53.11-3.71L50.12-3.71L50.12-0.85L53.78-0.85L53.78 0L49.12 0ZM59.99-3.94L59.99-3.94Q59.99-4.88 60.26-5.64Q60.52-6.40 60.99-6.92Q61.46-7.45 62.10-7.73Q62.74-8.02 63.50-8.02L63.50-8.02Q64.22-8.02 64.76-7.72Q65.30-7.43 65.64-7.04L65.64-7.04L65.08-6.41Q64.77-6.74 64.39-6.94Q64.01-7.14 63.51-7.14L63.51-7.14Q62.94-7.14 62.49-6.92Q62.03-6.70 61.71-6.28Q61.38-5.87 61.20-5.28Q61.02-4.69 61.02-3.96L61.02-3.96Q61.02-3.22 61.20-2.62Q61.37-2.03 61.68-1.61Q62.00-1.19 62.45-0.96Q62.90-0.73 63.46-0.73L63.46-0.73Q64.04-0.73 64.46-0.96Q64.89-1.19 65.27-1.61L65.27-1.61L65.84-1.00Q65.37-0.46 64.78-0.16Q64.19 0.14 63.44 0.14L63.44 0.14Q62.69 0.14 62.06-0.13Q61.43-0.41 60.97-0.93Q60.51-1.45 60.25-2.21Q59.99-2.98 59.99-3.94ZM73.72 0L73.72-7.03L71.34-7.03L71.34-7.87L77.10-7.87L77.10-7.03L74.72-7.03L74.72 0L73.72 0ZM92.21 0L92.21-3.05L89.85-7.87L90.92-7.87L91.94-5.65Q92.13-5.22 92.31-4.80Q92.49-4.38 92.69-3.94L92.69-3.94L92.74-3.94Q92.94-4.38 93.15-4.80Q93.35-5.22 93.53-5.65L93.53-5.65L94.54-7.87L95.58-7.87L93.22-3.05L93.22 0L92.21 0ZM104.39 0.14L104.39 0.14Q103.64 0.14 103.03-0.14Q102.41-0.43 101.96-0.97Q101.52-1.50 101.27-2.26Q101.03-3.02 101.03-3.97L101.03-3.97Q101.03-4.92 101.27-5.67Q101.52-6.42 101.96-6.94Q102.41-7.46 103.03-7.74Q103.64-8.02 104.39-8.02L104.39-8.02Q105.13-8.02 105.75-7.73Q106.37-7.45 106.82-6.93Q107.27-6.41 107.51-5.66Q107.76-4.91 107.76-3.97L107.76-3.97Q107.76-3.02 107.51-2.26Q107.27-1.50 106.82-0.97Q106.37-0.43 105.75-0.14Q105.13 0.14 104.39 0.14ZM104.39-0.73L104.39-0.73Q104.92-0.73 105.34-0.96Q105.77-1.19 106.07-1.61Q106.38-2.04 106.55-2.63Q106.72-3.23 106.72-3.97L106.72-3.97Q106.72-4.70 106.55-5.29Q106.38-5.88 106.07-6.29Q105.77-6.70 105.34-6.92Q104.92-7.14 104.39-7.14L104.39-7.14Q103.86-7.14 103.43-6.92Q103.01-6.70 102.70-6.29Q102.40-5.88 102.23-5.29Q102.06-4.70 102.06-3.97L102.06-3.97Q102.06-3.23 102.23-2.63Q102.40-2.04 102.70-1.61Q103.01-1.19 103.43-0.96Q103.86-0.73 104.39-0.73ZM114.42-3.25L114.42-7.87L115.41-7.87L115.41-3.23Q115.41-2.52 115.56-2.04Q115.70-1.56 115.95-1.27Q116.19-0.98 116.53-0.86Q116.86-0.73 117.25-0.73L117.25-0.73Q117.64-0.73 117.98-0.86Q118.32-0.98 118.57-1.27Q118.82-1.56 118.96-2.04Q119.11-2.52 119.11-3.23L119.11-3.23L119.11-7.87L120.07-7.87L120.07-3.25Q120.07-2.30 119.85-1.66Q119.64-1.01 119.26-0.61Q118.88-0.20 118.36-0.03Q117.85 0.14 117.25 0.14L117.25 0.14Q116.65 0.14 116.13-0.03Q115.60-0.20 115.23-0.61Q114.85-1.01 114.63-1.66Q114.42-2.30 114.42-3.25L114.42-3.25ZM128.19-7.07L128.19-4.14L129.51-4.14Q130.43-4.14 130.92-4.52Q131.42-4.90 131.42-5.66L131.42-5.66Q131.42-6.44 130.92-6.76Q130.43-7.07 129.51-7.07L129.51-7.07L128.19-7.07ZM132.64 0L131.51 0L129.62-3.32L128.19-3.32L128.19 0L127.19 0L127.19-7.87L129.65-7.87Q130.25-7.87 130.76-7.76Q131.27-7.64 131.64-7.38Q132.00-7.12 132.21-6.70Q132.41-6.28 132.41-5.66L132.41-5.66Q132.41-4.74 131.93-4.19Q131.45-3.64 130.65-3.43L130.65-3.43L132.64 0ZM146.59 0L146.59-7.87L147.58-7.87L147.58-4.57L151.24-4.57L151.24-7.87L152.25-7.87L152.25 0L151.24 0L151.24-3.71L147.58-3.71L147.58 0L146.59 0ZM159.41 0L159.41-7.87L163.95-7.87L163.95-7.03L160.41-7.03L160.41-4.56L163.40-4.56L163.40-3.71L160.41-3.71L160.41-0.85L164.07-0.85L164.07 0L159.41 0ZM171.72-3.20L174.08-3.20L173.71-4.40Q173.50-5.06 173.30-5.72Q173.11-6.37 172.92-7.06L172.92-7.06L172.87-7.06Q172.69-6.37 172.50-5.72Q172.31-5.06 172.09-4.40L172.09-4.40L171.72-3.20ZM175.08 0L174.34-2.40L171.47-2.40L170.71 0L169.69 0L172.36-7.87L173.48-7.87L176.15 0L175.08 0ZM182.26 0L182.26-7.87L184.23-7.87Q186.06-7.87 187.00-6.86Q187.95-5.86 187.95-3.97L187.95-3.97Q187.95-3.04 187.71-2.30Q187.47-1.56 187.00-1.05Q186.54-0.54 185.85-0.27Q185.17 0 184.28 0L184.28 0L182.26 0ZM183.26-0.82L184.16-0.82Q185.54-0.82 186.23-1.64Q186.92-2.47 186.92-3.97L186.92-3.97Q186.92-5.47 186.23-6.26Q185.54-7.06 184.16-7.06L184.16-7.06L183.26-7.06L183.26-0.82Z" transform="translate(-1.08, 8.016)"></path></g></g></g></g></g><defs v-gra="od"></defs></svg>